nRows=46
nColumns=19
inDegrees=yes
endheader
time	ground_force_vx	ground_force_vy	ground_force_vz	ground_force_px	ground_force_py	ground_force_pz	1_ground_force_vx	1_ground_force_vy	1_ground_force_vz	1_ground_force_px	1_ground_force_py	1_ground_force_pz	ground_torque_x	ground_torque_y	ground_torque_z	1_ground_torque_x	1_ground_torque_y	1_ground_torque_z
19.963	0.036067	0.288539	0.018034	0.300000012	0	0.609999999	0.126236	0.108202	-0.090169	0.300000012	0	0.2050000005	-0.000751	0.009378	0.000751	-0.668453	-0.027411	0.668453
19.964	0.054101	0.234438	0.018034	0.300000012	0	0.609999999	0.108202	0.072135	-0.108202	0.300000012	0	0.2050000005	-0.003301	0.007213	0.003301	105.961906	-0.02164	-105.961906
19.965	0.036067	0.306573	0.018034	0.300000012	0	0.609999999	0.14427	0.108202	-0.126236	0.300000012	0	0.2050000005	-0.006387	0.005049	0.006387	0.080372	-0.018034	-0.080372
19.966	0.036067	0.306573	0.054101	0.300000012	0	0.609999999	0.126236	0.180337	-0.090169	0.300000012	0	0.2050000005	-0.007902	0.012263	0.007902	-0.074121	-0.027411	0.074121
19.967	0.054101	0.234438	0.036067	0.300000012	0	0.609999999	0.162303	0.180337	-0.090169	0.300000012	0	0.2050000005	-0.003344	0.013706	0.003344	-0.029092	-0.020198	0.029092
19.968	0.018034	0.234438	0.018034	0.300000012	0	0.609999999	0.108202	0.14427	-0.090169	0.300000012	0	0.2050000005	0.001117	0.010099	-0.001117	0.715155	-0.022362	-0.715155
19.969	0.018034	0.288539	0	0.300000012	0	0.609999999	0.072135	0.162303	-0.090169	0.300000012	0	0.2050000005	-0.007511	0.013706	0.007511	-0.086128	-0.025247	0.086128
19.97	-0.018034	0.234438	0	0.300000012	0	0.609999999	0.126236	0.14427	-0.108202	0.300000012	0	0.2050000005	-0.005516	0.013706	0.005516	-0.07526	-0.019476	0.07526
19.971	0.018034	0.34264	0.018034	0.300000012	0	0.609999999	0.090169	0.14427	-0.126236	0.300000012	0	0.2050000005	0.00109	0.017312	-0.00109	0.375585	-0.023083	-0.375585
19.972	0.018034	0.324607	0.018034	0.300000012	0	0.609999999	0.108202	0.180337	-0.090169	0.300000012	0	0.2050000005	-0.004433	0.014427	0.004433	-0.116423	-0.020919	0.116423
19.973	-0	0.306573	0	0.300000012	0	0.609999999	0.108202	0.14427	-0.072135	0.300000012	0	0.2050000005	-0.005543	0.008656	0.005543	-0.054131	-0.02164	0.054131
19.974	0.018034	0.324607	0	0.300000012	0	0.609999999	0.126236	0.162303	-0.054101	0.300000012	0	0.2050000005	-0.003767	0.013706	0.003767	0.390099	-0.020198	-0.390099
19.975	0.036067	0.288539	0.018034	0.300000012	0	0.609999999	0.090169	0.180337	-0.072135	0.300000012	0	0.2050000005	-0.00824	0.005049	0.00824	0.030105	-0.016591	-0.030105
19.976	-0	0.270506	0	0.300000012	0	0.609999999	0.108202	0.126236	-0.108202	0.300000012	0	0.2050000005	-0.007078	0.008656	0.007078	0.034859	-0.02164	-0.034859
19.977	-0	0.234438	0.036067	0.300000012	0	0.609999999	0.108202	0.14427	-0.090169	0.300000012	0	0.2050000005	-0.004552	0.001443	0.004552	-0.151538	-0.018034	0.151538
19.978	0.018034	0.252472	0.018034	0.300000012	0	0.609999999	0.108202	0.14427	-0.108202	0.300000012	0	0.2050000005	-0.012606	0.007213	0.012606	-0.045325	-0.014427	0.045325
19.979	0.036067	0.270506	0.018034	0.300000012	0	0.609999999	0.126236	0.108202	-0.108202	0.300000012	0	0.2050000005	0.00136	0.012263	-0.00136	0.313012	-0.016591	-0.313012
19.98	0.018034	0.234438	0.018034	0.300000012	0	0.609999999	0.090169	0.090169	-0.072135	0.300000012	0	0.2050000005	0.001087	0.002885	-0.001087	2.612222	-0.023805	-2.612222
19.981	0.018034	0.270506	0.018034	0.300000012	0	0.609999999	0.14427	0.072135	-0.090169	0.300000012	0	0.2050000005	0.001118	0.007213	-0.001118	18.177969	-0.018034	-18.177969
19.982	0.036067	0.270506	0.036067	0.300000012	0	0.609999999	0.14427	0.072135	-0.072135	0.300000012	0	0.2050000005	0.000341	0.012984	-0.000341	-3.524011	-0.025969	3.524011
19.983	0.036067	0.234438	0.018034	0.300000012	0	0.609999999	0.090169	0.054101	-0.090169	0.300000012	0	0.2050000005	0.00111	0.012263	-0.00111	1465.321899	-0.027411	-1465.321899
19.984	0.036067	0.234438	0.018034	0.300000012	0	0.609999999	0.108202	0.054101	-0.108202	0.300000012	0	0.2050000005	-0.006356	0.012263	0.006356	124.229645	-0.028854	-124.229645
19.985	0.018034	0.216405	0.018034	0.300000012	0	0.609999999	0.126236	0.054101	-0.090169	0.300000012	0	0.2050000005	-0.008982	0.014427	0.008982	37.862812	-0.027411	-37.862812
19.986	0.018034	0.270506	0	0.300000012	0	0.609999999	0.14427	0.126236	-0.090169	0.300000012	0	0.2050000005	-0.005644	0.013706	0.005644	-0.019369	-0.029575	0.019369
19.987	0.036067	0.270506	0.036067	0.300000012	0	0.609999999	0.090169	0.126236	-0.054101	0.300000012	0	0.2050000005	0.000345	0.004328	-0.000345	0.770838	-0.020198	-0.770838
19.988	0.036067	0.216405	0.018034	0.300000012	0	0.609999999	0.090169	0.108202	-0.054101	0.300000012	0	0.2050000005	-0.000765	0.007935	0.000765	8.732244	-0.020198	-8.732244
19.989	0.036067	0.270506	0.018034	0.300000012	0	0.609999999	0.126236	0.090169	-0.072135	0.300000012	0	0.2050000005	-0.006266	0.007935	0.006266	17.851549	-0.028133	-17.851549
19.99	0.018034	0.288539	0	0.300000012	0	0.609999999	0.14427	0.090169	-0.108202	0.300000012	0	0.2050000005	-0.003706	0.013706	0.003706	4.815967	-0.025969	-4.815967
19.991	0.018034	0.270506	0.018034	0.300000012	0	0.609999999	0.126236	0.126236	-0.090169	0.300000012	0	0.2050000005	-0.002589	0.017312	0.002589	-0.005373	-0.027411	0.005373
19.992	0.054101	0.288539	-0.018034	0.300000012	0	0.609999999	0.108202	0.054101	-0.054101	0.300000012	0	0.2050000005	-0.003162	0.005771	0.003162	948.993713	-0.025247	-948.993713
19.993	0.054101	0.252472	0	0.300000012	0	0.609999999	0.14427	0.036067	-0.072135	0.300000012	0	0.2050000005	-0	0.013706	0	33125.996094	-0.02164	-33125.996094
19.994	0.054101	0.270506	0.018034	0.300000012	0	0.609999999	0.126236	0.072135	-0.072135	0.300000012	0	0.2050000005	0.001087	0.010099	-0.001087	91.816368	-0.023805	-91.816368
19.995	0.072135	0.288539	-0.036067	0.300000012	0	0.609999999	0.126236	0.108202	-0.090169	0.300000012	0	0.2050000005	0.005238	0.011542	-0.005238	5.611983	-0.023083	-5.611983
19.996	0.090169	0.234438	0.018034	0.300000012	0	0.609999999	0.14427	0.090169	-0.090169	0.300000012	0	0.2050000005	-0.002767	-0.001443	0.002767	14.213162	-0.025247	-14.213162
19.997	0.054101	0.126236	0.036067	0.300000012	0	0.609999999	0.126236	0.108202	-0.072135	0.300000012	0	0.2050000005	0.001794	0.006492	-0.001794	1.259859	-0.019476	-1.259859
19.998	0.018034	0.216405	0.018034	0.300000012	0	0.609999999	0.126236	0.054101	-0.072135	0.300000012	0	0.2050000005	0.002926	0.010099	-0.002926	1383.144531	-0.019476	-1383.144531
19.999	0.054101	0.252472	0.036067	0.300000012	0	0.609999999	0.126236	0.036067	-0.072135	0.300000012	0	0.2050000005	0.006013	0.006492	-0.006013	128074.890625	-0.016591	-128074.890625
20	0.072135	0.198371	0.018034	0.300000012	0	0.609999999	0.108202	0.090169	-0.072135	0.300000012	0	0.2050000005	0.001191	0.007935	-0.001191	124.035759	-0.014427	-124.035759
20.001	0.036067	0.234438	0.018034	0.300000012	0	0.609999999	0.126236	0.126236	-0.108202	0.300000012	0	0.2050000005	-0.006872	0.015148	0.006872	2.102498	-0.019476	-2.102498
20.002	0.018034	0.234438	0.018034	0.300000012	0	0.609999999	0.126236	0.14427	-0.072135	0.300000012	0	0.2050000005	-0.003454	0.012984	0.003454	-0.057089	-0.023805	0.057089
20.003	0.036067	0.216405	0.036067	0.300000012	0	0.609999999	0.126236	0.108202	-0.108202	0.300000012	0	0.2050000005	-0.006863	0.018755	0.006863	1.898672	-0.031018	-1.898672
20.004	0.054101	0.198371	0.018034	0.300000012	0	0.609999999	0.14427	0.162303	-0.090169	0.300000012	0	0.2050000005	-0.006307	0.017312	0.006307	-0.077306	-0.032461	0.077306
20.005	0.054101	0.270506	0	0.300000012	0	0.609999999	0.126236	0.126236	-0.090169	0.300000012	0	0.2050000005	-0.001838	0.016591	0.001838	-0.300898	-0.027411	0.300898
20.006	0.054101	0.270506	0.018034	0.300000012	0	0.609999999	0.108202	0.090169	-0.090169	0.300000012	0	0.2050000005	-0.002632	0.008656	0.002632	23.412304	-0.029575	-23.412304
20.007	0.072135	0.270506	0.036067	0.300000012	0	0.609999999	0.126236	0.090169	-0.108202	0.300000012	0	0.2050000005	-0.003341	0.018755	0.003341	10.48067	-0.028133	-10.48067
20.008	0.090169	0.306573	0.018034	0.300000012	0	0.609999999	0.14427	0.036067	-0.108202	0.300000012	0	0.2050000005	0.001134	0.012984	-0.001134	10209.158203	-0.025969	-10209.158203
